<svg width="38" height="35" viewBox="0 0 38 35" fill="none" xmlns="http://www.w3.org/2000/svg">
<g filter="url(#filter0_d_1439_5150)">
<path opacity="0.2" d="M32 12H6L19 4L32 12Z" fill="black"/>
<path d="M6 13.0004H9V21.0004H7C6.73478 21.0004 6.48043 21.1057 6.29289 21.2932C6.10536 21.4808 6 21.7351 6 22.0004C6 22.2656 6.10536 22.5199 6.29289 22.7075C6.48043 22.895 6.73478 23.0004 7 23.0004H31C31.2652 23.0004 31.5196 22.895 31.7071 22.7075C31.8946 22.5199 32 22.2656 32 22.0004C32 21.7351 31.8946 21.4808 31.7071 21.2932C31.5196 21.1057 31.2652 21.0004 31 21.0004H29V13.0004H32C32.2176 13.0001 32.4292 12.929 32.6026 12.7976C32.7761 12.6663 32.902 12.4819 32.9612 12.2726C33.0205 12.0632 33.0098 11.8403 32.9308 11.6375C32.8519 11.4348 32.709 11.2633 32.5238 11.1491L19.5238 3.1491C19.3662 3.05225 19.1849 3.00098 19 3.00098C18.8151 3.00098 18.6338 3.05225 18.4762 3.1491L5.47625 11.1491C5.29103 11.2633 5.14811 11.4348 5.06916 11.6375C4.99021 11.8403 4.97955 12.0632 5.03878 12.2726C5.09801 12.4819 5.22391 12.6663 5.39738 12.7976C5.57085 12.929 5.78242 13.0001 6 13.0004ZM11 13.0004H15V21.0004H11V13.0004ZM21 13.0004V21.0004H17V13.0004H21ZM27 21.0004H23V13.0004H27V21.0004ZM19 5.1741L28.4675 11.0004H9.5325L19 5.1741ZM34 26.0004C34 26.2656 33.8946 26.5199 33.7071 26.7075C33.5196 26.895 33.2652 27.0004 33 27.0004H5C4.73478 27.0004 4.48043 26.895 4.29289 26.7075C4.10536 26.5199 4 26.2656 4 26.0004C4 25.7351 4.10536 25.4808 4.29289 25.2932C4.48043 25.1057 4.73478 25.0004 5 25.0004H33C33.2652 25.0004 33.5196 25.1057 33.7071 25.2932C33.8946 25.4808 34 25.7351 34 26.0004Z" fill="#378FFF"/>
</g>
<defs>
<filter id="filter0_d_1439_5150" x="-1" y="0" width="40" height="40" filterUnits="userSpaceOnUse" color-interpolation-filters="sRGB">
<feFlood flood-opacity="0" result="BackgroundImageFix"/>
<feColorMatrix in="SourceAlpha" type="matrix" values="0 0 0 0 0 0 0 0 0 0 0 0 0 0 0 0 0 0 127 0" result="hardAlpha"/>
<feOffset dy="4"/>
<feGaussianBlur stdDeviation="2"/>
<feComposite in2="hardAlpha" operator="out"/>
<feColorMatrix type="matrix" values="0 0 0 0 0 0 0 0 0 0 0 0 0 0 0 0 0 0 0.25 0"/>
<feBlend mode="normal" in2="BackgroundImageFix" result="effect1_dropShadow_1439_5150"/>
<feBlend mode="normal" in="SourceGraphic" in2="effect1_dropShadow_1439_5150" result="shape"/>
</filter>
</defs>
</svg>
