<svg width="30" height="34" viewBox="0 0 30 34" fill="none" xmlns="http://www.w3.org/2000/svg">
<path fill-rule="evenodd" clip-rule="evenodd" d="M0 11.3162L12.9005 18.7643C13.0394 18.8445 13.1851 18.9024 13.3333 18.9392V33.3844L0.920065 26.0382C0.349784 25.7007 0 25.0873 0 24.4246V11.3162ZM30 11.1182V24.4246C30 25.0873 29.6502 25.7007 29.0799 26.0382L16.6667 33.3844V18.8126C16.6969 18.7975 16.7269 18.7814 16.7566 18.7643L30 11.1182V11.1182Z" fill="#378FFF"/>
<path opacity="0.499209" fill-rule="evenodd" clip-rule="evenodd" d="M0.405273 7.70142C0.562849 7.50244 0.761736 7.33426 0.993616 7.21076L14.1186 0.2201C14.6696 -0.0733665 15.3305 -0.0733665 15.8815 0.2201L29.0065 7.21076C29.1852 7.30596 29.3444 7.42771 29.4801 7.56966L15.0899 15.8778C14.9953 15.9325 14.9081 15.995 14.8286 16.064C14.7491 15.995 14.6618 15.9325 14.5672 15.8778L0.405273 7.70142Z" fill="#378FFF"/>
</svg>
