<svg width="21" height="20" viewBox="0 0 21 20" fill="none" xmlns="http://www.w3.org/2000/svg">
<path d="M10.2905 0.167969C8.36216 0.167969 6.4771 0.739796 4.87372 1.81114C3.27034 2.88248 2.02066 4.40523 1.28271 6.18681C0.544752 7.96838 0.351669 9.92879 0.727875 11.8201C1.10408 13.7114 2.03268 15.4487 3.39624 16.8123C4.7598 18.1758 6.49709 19.1044 8.3884 19.4806C10.2797 19.8568 12.2401 19.6637 14.0217 18.9258C15.8033 18.1878 17.326 16.9382 18.3974 15.3348C19.4687 13.7314 20.0405 11.8463 20.0405 9.91797C20.0378 7.33295 19.0097 4.85458 17.1818 3.02669C15.3539 1.1988 12.8756 0.170699 10.2905 0.167969ZM10.2905 18.168C8.65884 18.168 7.06378 17.6841 5.70708 16.7776C4.35037 15.8711 3.29295 14.5826 2.66853 13.0751C2.0441 11.5676 1.88072 9.90882 2.19905 8.30847C2.51738 6.70813 3.30312 5.23812 4.4569 4.08434C5.61068 2.93055 7.08069 2.14482 8.68104 1.82649C10.2814 1.50816 11.9402 1.67154 13.4477 2.29596C14.9552 2.92039 16.2436 3.97781 17.1502 5.33451C18.0567 6.69122 18.5405 8.28627 18.5405 9.91797C18.5381 12.1052 17.6681 14.2022 16.1214 15.7489C14.5748 17.2955 12.4778 18.1655 10.2905 18.168ZM16.2905 9.91797C16.2905 10.1169 16.2115 10.3076 16.0709 10.4483C15.9302 10.589 15.7394 10.668 15.5405 10.668H10.2905C10.0916 10.668 9.90085 10.589 9.7602 10.4483C9.61955 10.3076 9.54053 10.1169 9.54053 9.91797V4.66797C9.54053 4.46906 9.61955 4.27829 9.7602 4.13764C9.90085 3.99699 10.0916 3.91797 10.2905 3.91797C10.4894 3.91797 10.6802 3.99699 10.8209 4.13764C10.9615 4.27829 11.0405 4.46906 11.0405 4.66797V9.16797H15.5405C15.7394 9.16797 15.9302 9.24699 16.0709 9.38764C16.2115 9.52829 16.2905 9.71906 16.2905 9.91797Z" fill="white"/>
</svg>
