<svg width="22" height="14" viewBox="0 0 22 14" fill="none" xmlns="http://www.w3.org/2000/svg">
<path d="M21.3653 6.99319C21.3657 7.24272 21.3029 7.48828 21.1827 7.70696C21.0625 7.92565 20.8889 8.11034 20.6781 8.24381L12.4103 13.5088C12.1853 13.6527 11.9258 13.7335 11.659 13.7428C11.3921 13.7521 11.1276 13.6896 10.8931 13.5619C10.6587 13.4341 10.4628 13.2457 10.326 13.0164C10.1891 12.7871 10.1164 12.5252 10.1153 12.2582V8.76132L2.6603 13.5088C2.43531 13.6527 2.17584 13.7335 1.90897 13.7428C1.6421 13.7521 1.37761 13.6896 1.14313 13.5619C0.908652 13.4341 0.712775 13.2457 0.575952 13.0164C0.439129 12.7871 0.366378 12.5252 0.365295 12.2582V1.72819C0.366378 1.46116 0.439129 1.19931 0.575952 0.969993C0.712775 0.740674 0.908652 0.552293 1.14313 0.424516C1.37761 0.29674 1.6421 0.234255 1.90897 0.243587C2.17584 0.252918 2.43531 0.333723 2.6603 0.477565L10.1153 5.22507V1.72819C10.1164 1.46116 10.1891 1.19931 10.326 0.969993C10.4628 0.740674 10.6587 0.552293 10.8931 0.424516C11.1276 0.29674 11.3921 0.234255 11.659 0.243587C11.9258 0.252918 12.1853 0.333723 12.4103 0.477565L20.6781 5.74257C20.8889 5.87604 21.0625 6.06073 21.1827 6.27942C21.3029 6.4981 21.3657 6.74366 21.3653 6.99319Z" fill="#378FFF"/>
</svg>
