<svg width="32" height="32" viewBox="0 0 32 32" fill="none" xmlns="http://www.w3.org/2000/svg">
<path opacity="0.2" d="M26 6C25.2044 6 24.4413 6.31607 23.8787 6.87868C23.3161 7.44129 23 8.20435 23 9H9C9 8.20435 8.68393 7.44129 8.12132 6.87868C7.55871 6.31607 6.79565 6 6 6C5.20435 6 4.44129 6.31607 3.87868 6.87868C3.31607 7.44129 3 8.20435 3 9V19C3 21.1217 3.84285 23.1566 5.34315 24.6569C6.84344 26.1571 8.87827 27 11 27H21C23.1217 27 25.1566 26.1571 26.6569 24.6569C28.1571 23.1566 29 21.1217 29 19V9C29 8.20435 28.6839 7.44129 28.1213 6.87868C27.5587 6.31607 26.7956 6 26 6ZM25 19C25 20.0609 24.5786 21.0783 23.8284 21.8284C23.0783 22.5786 22.0609 23 21 23H11C9.93913 23 8.92172 22.5786 8.17157 21.8284C7.42143 21.0783 7 20.0609 7 19V18C7 16.9391 7.42143 15.9217 8.17157 15.1716C8.92172 14.4214 9.93913 14 11 14H21C22.0609 14 23.0783 14.4214 23.8284 15.1716C24.5786 15.9217 25 16.9391 25 18V19Z" fill="black"/>
<path d="M21 13.0001H11C9.67393 13.0001 8.40216 13.5269 7.46447 14.4645C6.52679 15.4022 6.00001 16.674 6.00001 18.0001V19.0001C6.00001 19.6567 6.12934 20.3069 6.38061 20.9135C6.63188 21.5201 7.00018 22.0713 7.46447 22.5356C8.40216 23.4733 9.67393 24.0001 11 24.0001H21C21.6566 24.0001 22.3068 23.8707 22.9134 23.6195C23.5201 23.3682 24.0712 22.9999 24.5355 22.5356C24.9998 22.0713 25.3681 21.5201 25.6194 20.9135C25.8707 20.3069 26 19.6567 26 19.0001V18.0001C26 16.674 25.4732 15.4022 24.5355 14.4645C23.5979 13.5269 22.3261 13.0001 21 13.0001ZM24 19.0001C24 19.7957 23.6839 20.5588 23.1213 21.1214C22.5587 21.684 21.7957 22.0001 21 22.0001H11C10.2044 22.0001 9.4413 21.684 8.87869 21.1214C8.31608 20.5588 8.00001 19.7957 8.00001 19.0001V18.0001C8.00001 17.2044 8.31608 16.4414 8.87869 15.8787C9.4413 15.3161 10.2044 15.0001 11 15.0001H21C21.7957 15.0001 22.5587 15.3161 23.1213 15.8787C23.6839 16.4414 24 17.2044 24 18.0001V19.0001ZM26 5.00007C25.1132 5.00091 24.2517 5.29587 23.5505 5.83874C22.8493 6.38162 22.348 7.14175 22.125 8.00007H9.87501C9.63319 7.05558 9.05475 6.23193 8.24839 5.68391C7.44204 5.1359 6.46329 4.90125 5.49611 5.02406C4.52893 5.14688 3.63989 5.61871 2.9961 6.35087C2.35231 7.08304 1.99809 8.02512 2.00001 9.00007V19.0001C2.00265 21.3862 2.95172 23.6739 4.63897 25.3611C6.32622 27.0484 8.61387 27.9974 11 28.0001H21C23.3861 27.9974 25.6738 27.0484 27.361 25.3611C29.0483 23.6739 29.9974 21.3862 30 19.0001V9.00007C30 7.93921 29.5786 6.92179 28.8284 6.17164C28.0783 5.4215 27.0609 5.00007 26 5.00007ZM28 19.0001C27.998 20.856 27.2599 22.6353 25.9476 23.9476C24.6352 25.26 22.8559 25.9981 21 26.0001H11C9.1441 25.9981 7.36478 25.26 6.05245 23.9476C4.74013 22.6353 4.00199 20.856 4.00001 19.0001V9.00007C4.00001 8.46964 4.21072 7.96093 4.58579 7.58586C4.96087 7.21078 5.46957 7.00007 6.00001 7.00007C6.53044 7.00007 7.03915 7.21078 7.41422 7.58586C7.78929 7.96093 8.00001 8.46964 8.00001 9.00007C8.00001 9.26529 8.10536 9.51964 8.2929 9.70718C8.48044 9.89471 8.73479 10.0001 9.00001 10.0001H23C23.2652 10.0001 23.5196 9.89471 23.7071 9.70718C23.8947 9.51964 24 9.26529 24 9.00007C24 8.46964 24.2107 7.96093 24.5858 7.58586C24.9609 7.21078 25.4696 7.00007 26 7.00007C26.5304 7.00007 27.0391 7.21078 27.4142 7.58586C27.7893 7.96093 28 8.46964 28 9.00007V19.0001ZM13 18.5001C13 18.7967 12.912 19.0868 12.7472 19.3334C12.5824 19.5801 12.3481 19.7724 12.074 19.8859C11.7999 19.9994 11.4983 20.0291 11.2074 19.9712C10.9164 19.9134 10.6491 19.7705 10.4393 19.5607C10.2296 19.351 10.0867 19.0837 10.0288 18.7927C9.97095 18.5017 10.0007 18.2001 10.1142 17.926C10.2277 17.652 10.42 17.4177 10.6667 17.2529C10.9133 17.088 11.2033 17.0001 11.5 17.0001C11.8978 17.0001 12.2794 17.1581 12.5607 17.4394C12.842 17.7207 13 18.1022 13 18.5001ZM22 18.5001C22 18.7967 21.912 19.0868 21.7472 19.3334C21.5824 19.5801 21.3481 19.7724 21.074 19.8859C20.7999 19.9994 20.4983 20.0291 20.2074 19.9712C19.9164 19.9134 19.6491 19.7705 19.4393 19.5607C19.2296 19.351 19.0867 19.0837 19.0288 18.7927C18.971 18.5017 19.0007 18.2001 19.1142 17.926C19.2277 17.652 19.42 17.4177 19.6667 17.2529C19.9133 17.088 20.2033 17.0001 20.5 17.0001C20.8978 17.0001 21.2794 17.1581 21.5607 17.4394C21.842 17.7207 22 18.1022 22 18.5001Z" fill="#378FFF"/>
</svg>
