<svg width="20" height="20" viewBox="0 0 20 20" fill="none" xmlns="http://www.w3.org/2000/svg">
<g clip-path="url(#clip0_8_416)">
<path fill-rule="evenodd" clip-rule="evenodd" d="M10 2.50001C5.8579 2.50001 2.50004 5.85787 2.50004 10C2.50004 14.1421 5.8579 17.5 10 17.5C14.1422 17.5 17.5 14.1421 17.5 10C17.5 5.85787 14.1422 2.50001 10 2.50001ZM0.833374 10C0.833374 4.9374 4.93743 0.833344 10 0.833344C15.0626 0.833344 19.1667 4.9374 19.1667 10C19.1667 15.0626 15.0626 19.1667 10 19.1667C4.93743 19.1667 0.833374 15.0626 0.833374 10Z" fill="#231F20"/>
<path fill-rule="evenodd" clip-rule="evenodd" d="M9.99996 9.16666C10.4602 9.16666 10.8333 9.53975 10.8333 9.99999V13.3333C10.8333 13.7936 10.4602 14.1667 9.99996 14.1667C9.53972 14.1667 9.16663 13.7936 9.16663 13.3333V9.99999C9.16663 9.53975 9.53972 9.16666 9.99996 9.16666Z" fill="#231F20"/>
<path fill-rule="evenodd" clip-rule="evenodd" d="M9.16663 6.66668C9.16663 6.20644 9.53972 5.83334 9.99996 5.83334H10.0083C10.4685 5.83334 10.8416 6.20644 10.8416 6.66668C10.8416 7.12691 10.4685 7.50001 10.0083 7.50001H9.99996C9.53972 7.50001 9.16663 7.12691 9.16663 6.66668Z" fill="#231F20"/>
</g>
<defs>
<clipPath id="clip0_8_416">
<rect width="20" height="20" fill="white"/>
</clipPath>
</defs>
</svg>
