<svg width="20" height="20" viewBox="0 0 20 20" fill="none" xmlns="http://www.w3.org/2000/svg">
<path opacity="0.2" d="M18.125 7.68437C18.0258 10.6969 15.5211 13.125 12.507 13.125C11.7865 13.1269 11.0724 12.9898 10.4039 12.7211L9.375 13.75H7.5V15.625H5.625V17.5H3.125C2.95924 17.5 2.80027 17.4342 2.68306 17.3169C2.56585 17.1997 2.5 17.0408 2.5 16.875V14.6336C2.50008 14.4681 2.56582 14.3093 2.68281 14.1922L7.27891 9.59609C7.01023 8.92756 6.87309 8.21346 6.875 7.49297C6.875 4.4789 9.30312 1.97422 12.3156 1.87812C13.0852 1.85247 13.8518 1.98509 14.568 2.26776C15.2843 2.55043 15.9348 2.97714 16.4794 3.52145C17.024 4.06577 17.4511 4.7161 17.7342 5.43217C18.0172 6.14824 18.1502 6.9148 18.125 7.68437Z" fill="#378FFF"/>
<path d="M16.9195 3.08025C15.9268 2.08611 14.628 1.45546 13.2329 1.29006C11.8377 1.12465 10.4275 1.43414 9.22979 2.16859C8.03211 2.90304 7.11681 4.0196 6.6316 5.33809C6.14639 6.65659 6.11957 8.10011 6.55547 9.43572L2.2414 13.7498C2.12483 13.8654 2.0324 14.0031 1.9695 14.1548C1.9066 14.3065 1.87447 14.4692 1.875 14.6334V16.8748C1.875 17.2063 2.00669 17.5242 2.24112 17.7587C2.47554 17.9931 2.79348 18.1248 3.125 18.1248H5.625C5.79076 18.1248 5.94973 18.0589 6.06694 17.9417C6.18415 17.8245 6.25 17.6655 6.25 17.4998V16.2498H7.5C7.66576 16.2498 7.82473 16.1839 7.94194 16.0667C8.05915 15.9495 8.125 15.7905 8.125 15.6248V14.3748H9.375C9.4571 14.3748 9.53841 14.3587 9.61428 14.3274C9.69015 14.296 9.7591 14.25 9.81719 14.192L10.5641 13.4443C11.1892 13.6477 11.8426 13.7508 12.5 13.7498H12.5078C13.7433 13.7483 14.9507 13.3806 15.9773 12.6933C17.004 12.0059 17.8039 11.0297 18.276 9.88798C18.7481 8.74623 18.8712 7.49017 18.6297 6.27849C18.3883 5.0668 17.7932 3.95386 16.9195 3.08025ZM17.5 7.66384C17.4148 10.3271 15.1758 12.4967 12.5086 12.4998H12.5C11.8673 12.5008 11.2402 12.3813 10.6523 12.1474C10.5373 12.0975 10.41 12.0834 10.2868 12.1068C10.1637 12.1302 10.0504 12.1901 9.96172 12.2787L9.11641 13.1248H7.5C7.33424 13.1248 7.17527 13.1906 7.05806 13.3078C6.94085 13.425 6.875 13.584 6.875 13.7498V14.9998H5.625C5.45924 14.9998 5.30027 15.0656 5.18306 15.1828C5.06585 15.3 5 15.459 5 15.6248V16.8748H3.125V14.6334L7.72109 10.0381C7.80971 9.94939 7.86961 9.83611 7.89302 9.71295C7.91643 9.58979 7.90225 9.46244 7.85234 9.34744C7.61777 8.75758 7.49817 8.12831 7.5 7.49353C7.5 4.82634 9.67265 2.58728 12.3359 2.50212C13.0201 2.47929 13.7016 2.59717 14.3383 2.84846C14.975 3.09975 15.5533 3.4791 16.0374 3.96301C16.5216 4.44691 16.9012 5.02506 17.1527 5.66166C17.4043 6.29825 17.5225 6.97971 17.5 7.66384ZM15 5.93728C15 6.1227 14.945 6.30395 14.842 6.45813C14.739 6.6123 14.5926 6.73246 14.4213 6.80342C14.25 6.87437 14.0615 6.89294 13.8796 6.85677C13.6977 6.82059 13.5307 6.7313 13.3996 6.60019C13.2685 6.46908 13.1792 6.30203 13.143 6.12018C13.1068 5.93832 13.1254 5.74982 13.1964 5.57851C13.2673 5.40721 13.3875 5.26079 13.5417 5.15778C13.6958 5.05476 13.8771 4.99978 14.0625 4.99978C14.3111 4.99978 14.5496 5.09855 14.7254 5.27437C14.9012 5.45018 15 5.68864 15 5.93728Z" fill="#378FFF"/>
</svg>
