<svg width="20" height="20" viewBox="0 0 20 20" fill="none" xmlns="http://www.w3.org/2000/svg">
<g clip-path="url(#clip0_1148_1292)">
<path opacity="0.2" d="M9.375 8.125C9.375 8.74307 9.19172 9.34725 8.84834 9.86116C8.50496 10.3751 8.01691 10.7756 7.44589 11.0121C6.87487 11.2486 6.24653 11.3105 5.64034 11.19C5.03415 11.0694 4.47733 10.7717 4.04029 10.3347C3.60325 9.89767 3.30563 9.34085 3.18505 8.73466C3.06447 8.12847 3.12635 7.50013 3.36288 6.92911C3.5994 6.3581 3.99994 5.87004 4.51384 5.52666C5.02775 5.18328 5.63193 5 6.25 5C7.0788 5 7.87366 5.32924 8.45971 5.91529C9.04576 6.50134 9.375 7.2962 9.375 8.125Z" fill="#378FFF"/>
<path d="M11.875 6.2502C11.875 6.08444 11.9408 5.92547 12.0581 5.80826C12.1753 5.69105 12.3342 5.6252 12.5 5.6252H19.375C19.5408 5.6252 19.6997 5.69105 19.8169 5.80826C19.9341 5.92547 20 6.08444 20 6.2502C20 6.41596 19.9341 6.57493 19.8169 6.69214C19.6997 6.80935 19.5408 6.8752 19.375 6.8752H12.5C12.3342 6.8752 12.1753 6.80935 12.0581 6.69214C11.9408 6.57493 11.875 6.41596 11.875 6.2502ZM19.375 9.3752H12.5C12.3342 9.3752 12.1753 9.44105 12.0581 9.55826C11.9408 9.67547 11.875 9.83444 11.875 10.0002C11.875 10.166 11.9408 10.3249 12.0581 10.4421C12.1753 10.5594 12.3342 10.6252 12.5 10.6252H19.375C19.5408 10.6252 19.6997 10.5594 19.8169 10.4421C19.9341 10.3249 20 10.166 20 10.0002C20 9.83444 19.9341 9.67547 19.8169 9.55826C19.6997 9.44105 19.5408 9.3752 19.375 9.3752ZM19.375 13.1252H14.375C14.2092 13.1252 14.0503 13.191 13.9331 13.3083C13.8158 13.4255 13.75 13.5844 13.75 13.7502C13.75 13.916 13.8158 14.0749 13.9331 14.1921C14.0503 14.3094 14.2092 14.3752 14.375 14.3752H19.375C19.5408 14.3752 19.6997 14.3094 19.8169 14.1921C19.9341 14.0749 20 13.916 20 13.7502C20 13.5844 19.9341 13.4255 19.8169 13.3083C19.6997 13.191 19.5408 13.1252 19.375 13.1252ZM11.8555 14.844C11.8759 14.9235 11.8805 15.0062 11.8689 15.0875C11.8573 15.1688 11.8299 15.247 11.7881 15.3176C11.7463 15.3883 11.691 15.45 11.6254 15.4993C11.5597 15.5486 11.485 15.5845 11.4055 15.6049C11.3545 15.6186 11.302 15.6254 11.2492 15.6252C11.1106 15.6253 10.9759 15.5793 10.8663 15.4944C10.7567 15.4095 10.6784 15.2907 10.6437 15.1565C10.1625 13.2861 8.27343 11.8752 6.24922 11.8752C4.225 11.8752 2.33593 13.2854 1.85468 15.1565C1.81324 15.317 1.70971 15.4546 1.56686 15.5388C1.42401 15.6231 1.25355 15.6471 1.09297 15.6057C0.932386 15.5642 0.794844 15.4607 0.710599 15.3178C0.626355 15.175 0.602307 15.0045 0.643747 14.844C1.08047 13.1479 2.35 11.7744 3.96093 11.094C3.34065 10.6162 2.88546 9.95625 2.6592 9.2067C2.43295 8.45715 2.44698 7.65558 2.69933 6.91441C2.95168 6.17324 3.42969 5.52964 4.06632 5.07388C4.70294 4.61811 5.46626 4.37305 6.24922 4.37305C7.03217 4.37305 7.79549 4.61811 8.43212 5.07388C9.06875 5.52964 9.54675 6.17324 9.7991 6.91441C10.0515 7.65558 10.0655 8.45715 9.83923 9.2067C9.61298 9.95625 9.15779 10.6162 8.5375 11.094C10.1492 11.7744 11.4187 13.1479 11.8555 14.844ZM6.25 10.6252C6.74445 10.6252 7.2278 10.4786 7.63892 10.2039C8.05005 9.92917 8.37048 9.53872 8.5597 9.08191C8.74892 8.62509 8.79842 8.12243 8.70196 7.63747C8.6055 7.15252 8.3674 6.70706 8.01776 6.35743C7.66813 6.0078 7.22268 5.7697 6.73772 5.67324C6.25277 5.57677 5.7501 5.62628 5.29329 5.8155C4.83647 6.00472 4.44603 6.32515 4.17132 6.73628C3.89662 7.1474 3.75 7.63075 3.75 8.1252C3.75 8.78824 4.01339 9.42413 4.48223 9.89297C4.95107 10.3618 5.58696 10.6252 6.25 10.6252Z" fill="#378FFF"/>
</g>
<defs>
<clipPath id="clip0_1148_1292">
<rect width="20" height="20" fill="white"/>
</clipPath>
</defs>
</svg>
