<svg width="21" height="21" viewBox="0 0 21 21" fill="none" xmlns="http://www.w3.org/2000/svg">
<path opacity="0.2" d="M17.5616 5.23193L10.0616 12.1069L2.56165 5.23193H17.5616Z" fill="#378FFF"/>
<path d="M17.5616 4.60693H2.56165C2.39589 4.60693 2.23691 4.67278 2.1197 4.78999C2.00249 4.9072 1.93665 5.06617 1.93665 5.23193V15.8569C1.93665 16.1885 2.06834 16.5064 2.30276 16.7408C2.53718 16.9752 2.85512 17.1069 3.18665 17.1069H16.9366C17.2682 17.1069 17.5861 16.9752 17.8205 16.7408C18.0549 16.5064 18.1866 16.1885 18.1866 15.8569V5.23193C18.1866 5.06617 18.1208 4.9072 18.0036 4.78999C17.8864 4.67278 17.7274 4.60693 17.5616 4.60693ZM15.9546 5.85693L10.0616 11.2593L4.16868 5.85693H15.9546ZM16.9366 15.8569H3.18665V6.65303L9.63899 12.5679C9.7543 12.6737 9.90512 12.7325 10.0616 12.7325C10.2182 12.7325 10.369 12.6737 10.4843 12.5679L16.9366 6.65303V15.8569Z" fill="#378FFF"/>
</svg>
