<svg width="20" height="20" viewBox="0 0 20 20" fill="none" xmlns="http://www.w3.org/2000/svg">
<path d="M10.0953 0.0874023C8.16697 0.0874023 6.28191 0.65923 4.67853 1.73057C3.07515 2.80192 1.82547 4.32466 1.08752 6.10624C0.349561 7.88782 0.156479 9.84822 0.532685 11.7395C0.908891 13.6308 1.83749 15.3681 3.20105 16.7317C4.56461 18.0953 6.3019 19.0239 8.19321 19.4001C10.0845 19.7763 12.0449 19.5832 13.8265 18.8452C15.6081 18.1073 17.1308 16.8576 18.2022 15.2542C19.2735 13.6508 19.8453 11.7658 19.8453 9.8374C19.8421 7.25253 18.8139 4.77445 16.9861 2.94667C15.1583 1.11889 12.6802 0.0906274 10.0953 0.0874023ZM5.97034 10.9624C5.74784 10.9624 5.53033 10.8964 5.34532 10.7728C5.16032 10.6492 5.01613 10.4735 4.93098 10.2679C4.84583 10.0624 4.82355 9.83615 4.86696 9.61793C4.91037 9.3997 5.01751 9.19924 5.17485 9.04191C5.33218 8.88457 5.53264 8.77743 5.75086 8.73402C5.96909 8.69061 6.19529 8.71289 6.40086 8.79804C6.60643 8.88319 6.78213 9.02738 6.90574 9.21239C7.02936 9.39739 7.09534 9.6149 7.09534 9.8374C7.09534 10.1358 6.97681 10.4219 6.76584 10.6329C6.55486 10.8439 6.26871 10.9624 5.97034 10.9624ZM10.0953 10.9624C9.87284 10.9624 9.65533 10.8964 9.47032 10.7728C9.28532 10.6492 9.14113 10.4735 9.05598 10.2679C8.97083 10.0624 8.94855 9.83615 8.99196 9.61793C9.03537 9.3997 9.14251 9.19924 9.29985 9.04191C9.45718 8.88457 9.65764 8.77743 9.87586 8.73402C10.0941 8.69061 10.3203 8.71289 10.5259 8.79804C10.7314 8.88319 10.9071 9.02738 11.0307 9.21239C11.1544 9.39739 11.2203 9.6149 11.2203 9.8374C11.2203 10.1358 11.1018 10.4219 10.8908 10.6329C10.6799 10.8439 10.3937 10.9624 10.0953 10.9624ZM14.2203 10.9624C13.9978 10.9624 13.7803 10.8964 13.5953 10.7728C13.4103 10.6492 13.2661 10.4735 13.181 10.2679C13.0958 10.0624 13.0735 9.83615 13.117 9.61793C13.1604 9.3997 13.2675 9.19924 13.4248 9.04191C13.5822 8.88457 13.7826 8.77743 14.0009 8.73402C14.2191 8.69061 14.4453 8.71289 14.6509 8.79804C14.8564 8.88319 15.0321 9.02738 15.1557 9.21239C15.2794 9.39739 15.3453 9.6149 15.3453 9.8374C15.3453 10.1358 15.2268 10.4219 15.0158 10.6329C14.8049 10.8439 14.5187 10.9624 14.2203 10.9624Z" fill="#36BFFA"/>
</svg>
