<svg width="19" height="22" viewBox="0 0 19 22" fill="none" xmlns="http://www.w3.org/2000/svg">
<path d="M9.375 21.75C8.595 21.75 7.835 21.35 7.315 20.65L6.305 19.3C6.095 19.02 5.815 18.86 5.515 18.84C5.215 18.83 4.915 18.96 4.675 19.21L4.105 18.7L4.655 19.21C3.215 20.75 2.105 20.63 1.575 20.42C1.035 20.21 0.125 19.52 0.125 17.3V6.04C0.125 1.6 1.405 0.25 5.595 0.25H13.155C17.345 0.25 18.625 1.6 18.625 6.04V17.3C18.625 19.51 17.715 20.2 17.175 20.42C16.645 20.63 15.545 20.75 14.095 19.21C13.855 18.95 13.555 18.81 13.245 18.84C12.945 18.86 12.655 19.02 12.445 19.3L11.435 20.65C10.915 21.35 10.155 21.75 9.375 21.75ZM5.455 17.33H5.585C6.325 17.37 7.025 17.76 7.495 18.39L8.505 19.74C8.995 20.39 9.745 20.39 10.235 19.74L11.245 18.39C11.725 17.76 12.415 17.37 13.165 17.33C13.905 17.29 14.645 17.6 15.185 18.18C15.945 18.99 16.435 19.09 16.615 19.02C16.855 18.92 17.115 18.34 17.115 17.3V6.04C17.115 2.43 16.485 1.75 13.145 1.75H5.595C2.255 1.75 1.625 2.43 1.625 6.04V17.3C1.625 18.35 1.885 18.93 2.125 19.02C2.295 19.09 2.795 18.99 3.555 18.18C4.095 17.63 4.765 17.33 5.455 17.33Z" fill="#378FFF"/>
<path d="M13.605 10.75H8.105C7.695 10.75 7.355 10.41 7.355 10C7.355 9.59 7.695 9.25 8.105 9.25H13.605C14.015 9.25 14.355 9.59 14.355 10C14.355 10.41 14.015 10.75 13.605 10.75ZM13.605 6.75H8.105C7.695 6.75 7.355 6.41 7.355 6C7.355 5.59 7.695 5.25 8.105 5.25H13.605C14.015 5.25 14.355 5.59 14.355 6C14.355 6.41 14.015 6.75 13.605 6.75ZM5.156 7C4.606 7 4.156 6.55 4.156 6C4.156 5.45 4.606 5 5.156 5C5.706 5 6.156 5.45 6.156 6C6.156 6.55 5.706 7 5.156 7ZM5.156 11C4.606 11 4.156 10.55 4.156 10C4.156 9.45 4.606 9 5.156 9C5.706 9 6.156 9.45 6.156 10C6.156 10.55 5.706 11 5.156 11Z" fill="#378FFF"/>
</svg>
