<svg width="21" height="21" viewBox="0 0 21 21" fill="none" xmlns="http://www.w3.org/2000/svg">
<path opacity="0.2" d="M17.7601 14.1007C17.6387 15.0077 17.192 15.8398 16.5031 16.4422C15.8142 17.0447 14.9299 17.3764 14.0148 17.3757C11.1968 17.3757 8.49434 16.2562 6.50176 14.2637C4.50919 12.2711 3.38977 9.56858 3.38977 6.75065C3.38907 5.8355 3.72077 4.95124 4.32318 4.26232C4.92559 3.5734 5.7577 3.12672 6.66477 3.00534C6.79886 2.98941 6.9345 3.01734 7.05139 3.08494C7.16828 3.15254 7.26014 3.25618 7.31321 3.38034L8.96399 7.06784C9.00455 7.16255 9.02107 7.26582 9.01207 7.36846C9.00307 7.47109 8.96885 7.56991 8.91243 7.65612L7.2429 9.64128C7.18367 9.73064 7.14865 9.83384 7.14126 9.94079C7.13387 10.0477 7.15435 10.1548 7.20071 10.2514C7.8468 11.5741 9.21399 12.9249 10.5406 13.5647C10.6377 13.6109 10.7453 13.6309 10.8525 13.6228C10.9598 13.6147 11.0631 13.5788 11.1523 13.5186L13.1054 11.8546C13.192 11.797 13.2915 11.7619 13.395 11.7525C13.4986 11.743 13.6028 11.7596 13.6984 11.8007L17.3827 13.4514C17.5075 13.5042 17.6117 13.596 17.6798 13.7131C17.7478 13.8301 17.776 13.9662 17.7601 14.1007Z" fill="#378FFF"/>
<path d="M17.6374 12.88L13.957 11.2308L13.9468 11.2261C13.7557 11.1444 13.5473 11.1116 13.3404 11.1307C13.1334 11.1498 12.9345 11.2202 12.7617 11.3355C12.7413 11.3489 12.7217 11.3635 12.7031 11.3792L10.8015 13.0003C9.59681 12.4152 8.35306 11.1808 7.7679 9.99174L9.39134 8.06127C9.40697 8.04174 9.42181 8.02221 9.43587 8.00111C9.54871 7.82869 9.61717 7.63105 9.63516 7.42578C9.65315 7.22051 9.62012 7.01397 9.539 6.82455V6.81517L7.88509 3.12846C7.77786 2.88101 7.59347 2.67487 7.35945 2.54083C7.12544 2.40678 6.85435 2.35202 6.58665 2.38471C5.52804 2.52401 4.55632 3.0439 3.85301 3.84728C3.14969 4.65066 2.76286 5.68259 2.76478 6.75033C2.76478 12.9535 7.81165 18.0003 14.0148 18.0003C15.0825 18.0022 16.1144 17.6154 16.9178 16.9121C17.7212 16.2088 18.2411 15.2371 18.3804 14.1785C18.4131 13.9108 18.3585 13.6398 18.2246 13.4058C18.0907 13.1718 17.8847 12.9874 17.6374 12.88ZM14.0148 16.7503C11.3635 16.7474 8.82164 15.6929 6.94691 13.8182C5.07217 11.9435 4.01767 9.40161 4.01478 6.75033C4.01184 5.98743 4.28669 5.24955 4.78801 4.67448C5.28933 4.09941 5.98283 3.72648 6.739 3.62533C6.73869 3.62845 6.73869 3.63159 6.739 3.63471L8.37962 7.30658L6.76478 9.23939C6.74839 9.25825 6.7335 9.27837 6.72025 9.29955C6.60268 9.47995 6.53371 9.68767 6.52002 9.90257C6.50634 10.1175 6.54839 10.3322 6.64212 10.5261C7.34993 11.9738 8.80853 13.4214 10.2718 14.1285C10.4671 14.2213 10.6831 14.2619 10.8988 14.2463C11.1145 14.2307 11.3224 14.1594 11.5023 14.0394C11.5223 14.0259 11.5416 14.0113 11.5601 13.9956L13.4593 12.3753L17.1312 14.0199C17.1312 14.0199 17.1374 14.0199 17.1398 14.0199C17.0399 14.7771 16.6675 15.472 16.0923 15.9746C15.5171 16.4771 14.7786 16.7529 14.0148 16.7503Z" fill="#378FFF"/>
</svg>
