<svg width="18" height="18" viewBox="0 0 18 18" fill="none" xmlns="http://www.w3.org/2000/svg">
<path fill-rule="evenodd" clip-rule="evenodd" d="M4.23607 2C3.8573 2 3.51103 2.214 3.34164 2.55279L2.61803 4H15.382L14.6584 2.55279C14.489 2.214 14.1427 2 13.7639 2H4.23607ZM2 15V6H16V15C16 15.5523 15.5523 16 15 16H3C2.44772 16 2 15.5523 2 15ZM1.55279 1.65836C2.06096 0.642007 3.09975 0 4.23607 0H13.7639C14.9002 0 15.939 0.642007 16.4472 1.65836L17.6833 4.1305C17.8916 4.54706 18 5.0064 18 5.47214V15C18 16.6569 16.6569 18 15 18H3C1.34315 18 0 16.6569 0 15V5.47214C0 5.0064 0.108435 4.54706 0.316718 4.1305L1.55279 1.65836ZM7 8C7 7.44772 6.55228 7 6 7C5.44772 7 5 7.44772 5 8C5 10.2091 6.79086 12 9 12C11.2091 12 13 10.2091 13 8C13 7.44772 12.5523 7 12 7C11.4477 7 11 7.44772 11 8C11 9.10457 10.1046 10 9 10C7.89543 10 7 9.10457 7 8Z" fill="#378FFF"/>
</svg>
