<svg width="22" height="22" viewBox="0 0 22 22" fill="none" xmlns="http://www.w3.org/2000/svg">
<path d="M11.075 12.53C8.805 12.46 7.105 10.69 7.105 8.51C7.105 6.29 8.915 4.48 11.135 4.48C13.355 4.48 15.165 6.29 15.165 8.51C15.1671 9.55448 14.7619 10.5586 14.0356 11.3092C13.3093 12.0598 12.319 12.4977 11.275 12.53H11.075ZM11.125 5.97C9.725 5.97 8.595 7.11 8.595 8.5C8.59198 9.15477 8.84394 9.785 9.29751 10.2572C9.75108 10.7295 10.3706 11.0066 11.025 11.03C11.1013 11.0195 11.1787 11.0195 11.255 11.03C11.9028 10.9955 12.5127 10.7139 12.9591 10.2432C13.4056 9.7726 13.6546 9.14871 13.655 8.5C13.655 7.11 12.525 5.97 11.125 5.97ZM11.125 21.75C8.435 21.75 5.865 20.75 3.875 18.93C3.78892 18.8508 3.72243 18.7526 3.68078 18.6433C3.63913 18.5339 3.62346 18.4164 3.635 18.3C3.765 17.11 4.505 16 5.735 15.18C8.715 13.2 13.545 13.2 16.515 15.18C17.745 16.01 18.485 17.11 18.615 18.3C18.645 18.54 18.555 18.77 18.375 18.93C16.3972 20.7455 13.8097 21.7519 11.125 21.75ZM5.205 18.1C6.86426 19.4903 8.96029 20.2515 11.125 20.25C13.295 20.25 15.385 19.49 17.045 18.1C16.865 17.49 16.385 16.9 15.675 16.42C13.215 14.78 9.045 14.78 6.565 16.42C5.855 16.9 5.385 17.49 5.205 18.1Z" fill="#378FFF"/>
<path d="M11.125 21.75C5.195 21.75 0.375 16.93 0.375 11C0.375 5.07 5.195 0.25 11.125 0.25C17.055 0.25 21.875 5.07 21.875 11C21.875 16.93 17.055 21.75 11.125 21.75ZM11.125 1.75C6.025 1.75 1.875 5.9 1.875 11C1.875 16.1 6.025 20.25 11.125 20.25C16.225 20.25 20.375 16.1 20.375 11C20.375 5.9 16.225 1.75 11.125 1.75Z" fill="#378FFF"/>
</svg>
