<svg width="20" height="20" viewBox="0 0 20 20" fill="none" xmlns="http://www.w3.org/2000/svg">
<g id="Search" clip-path="url(#clip0_983_2122)">
<path id="Vector" d="M18.3333 18.3337L16.6667 16.667M9.58332 17.5003C10.623 17.5003 11.6524 17.2956 12.6129 16.8977C13.5734 16.4999 14.4461 15.9167 15.1813 15.1816C15.9164 14.4465 16.4995 13.5737 16.8974 12.6132C17.2952 11.6527 17.5 10.6233 17.5 9.58366C17.5 8.54403 17.2952 7.51458 16.8974 6.55408C16.4995 5.59359 15.9164 4.72086 15.1813 3.98573C14.4461 3.2506 13.5734 2.66746 12.6129 2.26961C11.6524 1.87176 10.623 1.66699 9.58332 1.66699C7.48369 1.66699 5.47006 2.50107 3.98539 3.98573C2.50073 5.47039 1.66666 7.48403 1.66666 9.58366C1.66666 11.6833 2.50073 13.6969 3.98539 15.1816C5.47006 16.6663 7.48369 17.5003 9.58332 17.5003V17.5003Z" stroke="#8E8E93" stroke-width="1.5" stroke-linecap="round" stroke-linejoin="round"/>
</g>
<defs>
<clipPath id="clip0_983_2122">
<rect width="20" height="20" fill="white"/>
</clipPath>
</defs>
</svg>
