<svg width="20" height="20" viewBox="0 0 20 20" fill="none" xmlns="http://www.w3.org/2000/svg">
<path fill-rule="evenodd" clip-rule="evenodd" d="M9.9871 18.0048C9.9871 18.0048 16.3804 16.069 16.3804 10.7323C16.3804 5.39484 16.6121 4.97817 16.0996 4.46484C15.5863 3.9515 10.8254 2.2915 9.9871 2.2915C9.14876 2.2915 4.38793 3.9515 3.87543 4.46484C3.3621 4.97817 3.59376 5.39484 3.59376 10.7323C3.59376 16.069 9.9871 18.0048 9.9871 18.0048Z" stroke="#378FFF" stroke-width="1.5" stroke-linecap="round" stroke-linejoin="round"/>
<path opacity="0.2" fill-rule="evenodd" clip-rule="evenodd" d="M9.9871 18.0048C9.9871 18.0048 16.3804 16.069 16.3804 10.7323C16.3804 5.39484 16.6121 4.97817 16.0996 4.46484C15.5863 3.9515 10.8254 2.2915 9.9871 2.2915C9.14876 2.2915 4.38793 3.9515 3.87543 4.46484C3.3621 4.97817 3.59376 5.39484 3.59376 10.7323C3.59376 16.069 9.9871 18.0048 9.9871 18.0048Z" fill="#378FFF" stroke="#378FFF" stroke-width="1.5" stroke-linecap="round" stroke-linejoin="round"/>
</svg>
