<svg width="15" height="14" viewBox="0 0 15 14" fill="none" xmlns="http://www.w3.org/2000/svg">
<path d="M13.7279 6.22931L11.0912 8.50451L11.8945 11.907C11.9388 12.0918 11.9274 12.2855 11.8617 12.4637C11.796 12.6419 11.6789 12.7967 11.5253 12.9084C11.3717 13.0201 11.1884 13.0838 10.9986 13.0914C10.8088 13.0991 10.621 13.0503 10.4589 12.9512L7.49996 11.1301L4.53922 12.9512C4.37717 13.0497 4.18959 13.098 4.00012 13.0901C3.81065 13.0822 3.62775 13.0184 3.47446 12.9068C3.32116 12.7952 3.20432 12.6407 3.13866 12.4628C3.07299 12.2849 3.06143 12.0915 3.10543 11.907L3.91168 8.50451L1.27496 6.22931C1.13158 6.10539 1.02789 5.94198 0.976828 5.75948C0.925768 5.57698 0.929606 5.38348 0.987863 5.20314C1.04612 5.02281 1.15621 4.86364 1.30439 4.7455C1.45258 4.62736 1.63228 4.5555 1.82106 4.53888L5.27809 4.25998L6.61168 1.03263C6.68387 0.856745 6.80672 0.706295 6.96463 0.60041C7.12254 0.494525 7.30837 0.437988 7.4985 0.437988C7.68862 0.437988 7.87445 0.494525 8.03236 0.60041C8.19027 0.706295 8.31313 0.856745 8.38531 1.03263L9.71832 4.25998L13.1754 4.53888C13.3645 4.55488 13.5447 4.62634 13.6935 4.74432C13.8422 4.86229 13.9528 5.02153 14.0114 5.20208C14.07 5.38263 14.074 5.57647 14.023 5.7593C13.9719 5.94214 13.8681 6.10584 13.7244 6.2299L13.7279 6.22931Z" fill="#FEC84B"/>
</svg>
