<svg width="28" height="28" viewBox="0 0 28 28" fill="none" xmlns="http://www.w3.org/2000/svg">
<path d="M14.0001 0.666992C6.65341 0.666992 0.666748 6.65366 0.666748 14.0003C0.666748 21.347 6.65341 27.3337 14.0001 27.3337C21.3467 27.3337 27.3334 21.347 27.3334 14.0003C27.3334 6.65366 21.3467 0.666992 14.0001 0.666992ZM20.3734 10.9337L12.8134 18.4937C12.6267 18.6803 12.3734 18.787 12.1067 18.787C11.8401 18.787 11.5867 18.6803 11.4001 18.4937L7.62675 14.7203C7.24008 14.3337 7.24008 13.6937 7.62675 13.307C8.01341 12.9203 8.65341 12.9203 9.04008 13.307L12.1067 16.3737L18.9601 9.52033C19.3467 9.13366 19.9867 9.13366 20.3734 9.52033C20.7601 9.90699 20.7601 10.5337 20.3734 10.9337Z" fill="#23A26D"/>
</svg>
