<svg width="18" height="18" viewBox="0 0 18 18" fill="none" xmlns="http://www.w3.org/2000/svg">
<path d="M5.46145 10.7775C5.5347 10.171 5.78345 9.83145 6.25221 9.48333C6.92293 9.01187 7.76075 9.27856 7.76075 9.27856V7.69645C7.96443 7.69125 8.16819 7.70332 8.36966 7.73253V9.76855C8.36966 9.76855 7.53209 9.50186 6.86138 9.97357C6.39287 10.3214 6.14361 10.6613 6.07061 11.2678C6.06832 11.5971 6.13013 12.0276 6.41474 12.3999C6.34437 12.3638 6.27265 12.3227 6.19956 12.2765C5.5726 11.8555 5.45839 11.2239 5.46145 10.7775ZM11.829 4.77114C11.3677 4.26555 11.1932 3.75508 11.1301 3.39648H11.7105C11.7105 3.39648 11.5948 4.33673 12.4382 5.26137L12.4499 5.27381C12.2226 5.13082 12.0141 4.96204 11.829 4.77114ZM14.6251 6.20454V8.19961C14.6251 8.19961 13.8844 8.1706 13.3363 8.03116C12.571 7.83614 12.0791 7.53702 12.0791 7.53702C12.0791 7.53702 11.7393 7.32372 11.7118 7.30885V11.4287C11.7118 11.6581 11.649 12.2309 11.4574 12.7087C11.2074 13.3338 10.8216 13.7441 10.7506 13.8279C10.7506 13.8279 10.2813 14.3825 9.45343 14.756C8.70718 15.0929 8.05198 15.0843 7.85613 15.0929C7.85613 15.0929 6.72352 15.1377 5.70435 14.4754C5.48396 14.3294 5.27824 14.1641 5.08984 13.9815L5.09493 13.9851C6.11436 14.6475 7.24671 14.6026 7.24671 14.6026C7.44281 14.5941 8.09801 14.6026 8.84402 14.2657C9.67115 13.8923 10.1412 13.3377 10.1412 13.3377C10.2114 13.2538 10.599 12.8435 10.848 12.2183C11.039 11.7407 11.1024 11.1676 11.1024 10.9382V6.81886C11.1298 6.83397 11.4694 7.04728 11.4694 7.04728C11.4694 7.04728 11.9616 7.34664 12.7269 7.54141C13.2753 7.68085 14.0157 7.70986 14.0157 7.70986V6.14652C14.269 6.20332 14.4849 6.21868 14.6251 6.20454Z" fill="#FD355A"/>
<path d="M14.0158 6.14652V7.70937C14.0158 7.70937 13.2754 7.68036 12.727 7.54092C11.9617 7.3459 11.4695 7.04679 11.4695 7.04679C11.4695 7.04679 11.13 6.83349 11.1025 6.81837V10.9387C11.1025 11.1681 11.0397 11.7412 10.8481 12.2187C10.5981 12.844 10.2123 13.2543 10.1413 13.3382C10.1413 13.3382 9.67178 13.8928 8.84413 14.2662C8.09813 14.6031 7.44293 14.5946 7.24683 14.6031C7.24683 14.6031 6.11447 14.648 5.09505 13.9856L5.08996 13.982C4.98233 13.8778 4.88102 13.7677 4.78652 13.6524C4.46121 13.2558 4.2618 12.7867 4.2117 12.6529C4.21161 12.6523 4.21161 12.6518 4.2117 12.6512C4.13107 12.4186 3.96167 11.8602 3.98482 11.3192C4.02577 10.3648 4.36151 9.77903 4.45027 9.63228C4.68537 9.23209 4.99114 8.87403 5.35397 8.57405C5.67415 8.31519 6.03707 8.10923 6.42783 7.96461C6.85026 7.79481 7.3026 7.7038 7.76061 7.69645V9.27856C7.76061 9.27856 6.92279 9.01285 6.25233 9.48333C5.78357 9.83145 5.53481 10.171 5.46156 10.7775C5.45851 11.2239 5.57271 11.8555 6.19917 12.2768C6.27225 12.3231 6.34398 12.3642 6.41435 12.4001C6.52379 12.5424 6.657 12.6663 6.80859 12.767C7.42055 13.1544 7.93331 13.1814 8.58902 12.9298C9.02624 12.7616 9.35537 12.3826 9.50798 11.9625C9.60387 11.7002 9.6026 11.4362 9.6026 11.1632V3.39648H11.1287C11.1918 3.75508 11.3662 4.26555 11.8276 4.77114C12.0127 4.96204 12.2212 5.13082 12.4485 5.27381C12.5156 5.34328 12.859 5.68676 13.2998 5.89763C13.5277 6.00663 13.768 6.09014 14.0158 6.14652V6.14652Z" fill="black"/>
<path d="M3.60425 12.167V12.1682L3.64212 12.2708C3.63777 12.2589 3.62369 12.2226 3.60425 12.167Z" fill="#33F3ED"/>
<path d="M6.42788 7.96505C6.03712 8.10967 5.67421 8.31563 5.35403 8.57449C4.99108 8.87515 4.68538 9.23396 4.45058 9.63491C4.36182 9.78118 4.02608 10.3675 3.98513 11.3218C3.96198 11.8628 4.13138 12.4213 4.21201 12.6538C4.21192 12.6544 4.21192 12.655 4.21201 12.6555C4.26288 12.7882 4.46152 13.2572 4.78683 13.655C4.88133 13.7704 4.98264 13.8804 5.09027 13.9846C4.74542 13.756 4.43787 13.4797 4.17767 13.1645C3.85516 12.7713 3.65626 12.3072 3.60437 12.1702C3.60431 12.1692 3.60431 12.1682 3.60437 12.1673V12.1656C3.52349 11.9332 3.35358 11.3745 3.37724 10.8328C3.41819 9.87845 3.75393 9.29265 3.84269 9.1459C4.07742 8.7449 4.38313 8.38608 4.74614 8.08547C5.06625 7.82652 5.42918 7.62055 5.81999 7.47603C6.06376 7.3791 6.3177 7.30758 6.57744 7.26273C6.96887 7.19724 7.36865 7.19156 7.76194 7.24591V7.69689C7.3035 7.70408 6.85071 7.7951 6.42788 7.96505Z" fill="#33F3ED"/>
<path d="M11.1299 3.39673H9.60382V11.1637C9.60382 11.4367 9.60382 11.7 9.5092 11.963C9.35506 12.3828 9.02721 12.7619 8.59024 12.9301C7.93428 13.1826 7.42151 13.1546 6.80981 12.7672C6.65795 12.667 6.52441 12.5435 6.41455 12.4016C6.93571 12.668 7.40218 12.6634 7.98006 12.4411C8.41678 12.2729 8.74514 11.8938 8.89876 11.4738C8.99491 11.2115 8.99364 10.9475 8.99364 10.6747V2.90625H11.1009C11.1009 2.90625 11.0773 3.09932 11.1299 3.39673ZM14.0157 5.71455V6.14677C13.7683 6.09029 13.5285 6.00678 13.301 5.89787C12.8602 5.68701 12.5169 5.34352 12.4497 5.27405C12.5276 5.32308 12.6085 5.36769 12.6919 5.40764C13.2278 5.66409 13.7555 5.74064 14.0157 5.71455Z" fill="#33F3ED"/>
</svg>
