<svg width="28" height="28" viewBox="0 0 28 28" fill="none" xmlns="http://www.w3.org/2000/svg">
<path d="M25.6666 2.33337H2.33329C2.02387 2.33337 1.72713 2.45629 1.50833 2.67508C1.28954 2.89388 1.16663 3.19062 1.16663 3.50004V12.8334C1.16663 13.1428 1.28954 13.4395 1.50833 13.6583C1.72713 13.8771 2.02387 14 2.33329 14H5.83329V24.5C5.83329 24.8095 5.95621 25.1062 6.175 25.325C6.39379 25.5438 6.69054 25.6667 6.99996 25.6667H21C21.3094 25.6667 21.6061 25.5438 21.8249 25.325C22.0437 25.1062 22.1666 24.8095 22.1666 24.5V14H25.6666C25.976 14 26.2728 13.8771 26.4916 13.6583C26.7104 13.4395 26.8333 13.1428 26.8333 12.8334V3.50004C26.8333 3.19062 26.7104 2.89388 26.4916 2.67508C26.2728 2.45629 25.976 2.33337 25.6666 2.33337ZM8.16663 23.3334V21C8.78546 21 9.37896 21.2459 9.81654 21.6835C10.2541 22.121 10.5 22.7145 10.5 23.3334H8.16663ZM19.8333 23.3334H17.5C17.5 22.7145 17.7458 22.121 18.1834 21.6835C18.621 21.2459 19.2145 21 19.8333 21V23.3334ZM19.8333 18.6667C18.5956 18.6667 17.4086 19.1584 16.5335 20.0335C15.6583 20.9087 15.1666 22.0957 15.1666 23.3334H12.8333C12.8333 22.0957 12.3416 20.9087 11.4665 20.0335C10.5913 19.1584 9.4043 18.6667 8.16663 18.6667V9.33337H19.8333V18.6667ZM24.5 11.6667H22.1666V8.16671C22.1666 7.85729 22.0437 7.56054 21.8249 7.34175C21.6061 7.12296 21.3094 7.00004 21 7.00004H6.99996C6.69054 7.00004 6.39379 7.12296 6.175 7.34175C5.95621 7.56054 5.83329 7.85729 5.83329 8.16671V11.6667H3.49996V4.66671H24.5V11.6667ZM14 17.5C14.6922 17.5 15.3689 17.2948 15.9445 16.9102C16.52 16.5256 16.9686 15.979 17.2335 15.3394C17.4984 14.6999 17.5678 13.9962 17.4327 13.3172C17.2977 12.6383 16.9643 12.0147 16.4748 11.5252C15.9853 11.0357 15.3617 10.7023 14.6828 10.5673C14.0038 10.4322 13.3001 10.5016 12.6606 10.7665C12.021 11.0314 11.4744 11.48 11.0898 12.0555C10.7052 12.6311 10.5 13.3078 10.5 14C10.5 14.9283 10.8687 15.8185 11.5251 16.4749C12.1815 17.1313 13.0717 17.5 14 17.5ZM14 12.8334C14.2307 12.8334 14.4563 12.9018 14.6481 13.03C14.84 13.1582 14.9895 13.3404 15.0778 13.5536C15.1661 13.7668 15.1892 14.0013 15.1442 14.2276C15.0992 14.454 14.9881 14.6618 14.8249 14.825C14.6618 14.9882 14.4539 15.0993 14.2276 15.1443C14.0013 15.1893 13.7667 15.1662 13.5535 15.0779C13.3403 14.9896 13.1581 14.8401 13.0299 14.6482C12.9017 14.4564 12.8333 14.2308 12.8333 14C12.8333 13.6906 12.9562 13.3939 13.175 13.1751C13.3938 12.9563 13.6905 12.8334 14 12.8334Z" fill="#3E3E40"/>
</svg>
