<svg width="32" height="24" viewBox="0 0 32 24" fill="none" xmlns="http://www.w3.org/2000/svg">
<path opacity="0.587821" fill-rule="evenodd" clip-rule="evenodd" d="M6.66675 5.33333C6.66675 8.27885 9.05456 10.6667 12.0001 10.6667C14.9456 10.6667 17.3334 8.27885 17.3334 5.33333C17.3334 2.38781 14.9456 0 12.0001 0C9.05456 0 6.66675 2.38781 6.66675 5.33333ZM20.0001 10.6667C20.0001 12.8758 21.7909 14.6667 24.0001 14.6667C26.2092 14.6667 28.0001 12.8758 28.0001 10.6667C28.0001 8.45753 26.2092 6.66667 24.0001 6.66667C21.7909 6.66667 20.0001 8.45753 20.0001 10.6667Z" fill="#378FFF"/>
<path fill-rule="evenodd" clip-rule="evenodd" d="M11.9778 13.333C5.68255 13.333 0.517678 16.5684 0.000868912 22.9319C-0.0272823 23.2786 0.635616 23.9997 0.970003 23.9997H22.9956C23.9972 23.9997 24.0128 23.1936 23.9972 22.933C23.6065 16.3906 18.3616 13.333 11.9778 13.333ZM31.2746 23.9997L26.1333 23.9997C26.1333 20.9984 25.1417 18.2288 23.4683 16.0005C28.0103 16.0501 31.7189 18.3465 31.998 23.1997C32.0092 23.3951 31.998 23.9997 31.2746 23.9997Z" fill="#378FFF"/>
</svg>
