<svg width="20" height="20" viewBox="0 0 20 20" fill="none" xmlns="http://www.w3.org/2000/svg">
<path d="M10.0017 7.83533e-08C8.24544 -0.000219739 6.52009 0.46208 4.99922 1.34039C3.47835 2.2187 2.2156 3.48205 1.33802 5.00333C0.460427 6.52462 -0.00105257 8.25019 1.80268e-06 10.0065C0.00105617 11.7627 0.464607 13.4877 1.34402 15.008L0.0450036 18.9029C-0.003965 19.0498 -0.0110714 19.2074 0.0244808 19.358C0.0600329 19.5087 0.136839 19.6464 0.24629 19.7559C0.355741 19.8653 0.493511 19.9421 0.64416 19.9777C0.794808 20.0132 0.952382 20.0061 1.09922 19.9572L4.99419 18.6581C6.32231 19.426 7.80928 19.878 9.34004 19.9791C10.8708 20.0803 12.4043 19.8279 13.8219 19.2416C15.2396 18.6552 16.5033 17.7506 17.5153 16.5976C18.5273 15.4447 19.2605 14.0743 19.6582 12.5927C20.0558 11.111 20.1073 9.5577 19.8085 8.05297C19.5098 6.54823 18.8689 5.1324 17.9353 3.91503C17.0018 2.69765 15.8007 1.71136 14.425 1.03249C13.0493 0.353605 11.5358 0.000332151 10.0017 7.83533e-08ZM12.5018 15.8341C10.2916 15.8341 8.17187 14.956 6.609 13.3932C5.04612 11.8303 4.16811 9.71058 4.16811 7.50034C4.16811 6.61625 4.51931 5.76836 5.14446 5.14321C5.76961 4.51806 6.6175 4.16686 7.50159 4.16686L9.16834 7.50034L7.88494 9.42439C8.39403 10.6408 9.36132 11.6081 10.5778 12.1172L12.5018 10.8338L15.8353 12.5006C15.8353 13.3847 15.4841 14.2325 14.859 14.8577C14.2338 15.4828 13.3859 15.8341 12.5018 15.8341Z" fill="#00AB56" fill-opacity="0.9"/>
</svg>
