<svg width="33" height="33" viewBox="0 0 33 33" fill="none" xmlns="http://www.w3.org/2000/svg">
<path opacity="0.2" d="M28.8606 9.0752V15.0752H20.8606C20.8606 16.1361 20.4392 17.1535 19.689 17.9036C18.9389 18.6538 17.9215 19.0752 16.8606 19.0752C15.7997 19.0752 14.7823 18.6538 14.0322 17.9036C13.282 17.1535 12.8606 16.1361 12.8606 15.0752H4.8606V9.0752C4.8606 8.54476 5.07131 8.03605 5.44638 7.66098C5.82145 7.28591 6.33016 7.0752 6.8606 7.0752H26.8606C27.391 7.0752 27.8997 7.28591 28.2748 7.66098C28.6499 8.03605 28.8606 8.54476 28.8606 9.0752Z" fill="black"/>
<path d="M26.8606 6.0752H6.8606C6.06495 6.0752 5.30188 6.39127 4.73928 6.95388C4.17667 7.51648 3.8606 8.27955 3.8606 9.0752V23.0752C3.8606 23.8708 4.17667 24.6339 4.73928 25.1965C5.30188 25.7591 6.06495 26.0752 6.8606 26.0752H26.8606C27.6562 26.0752 28.4193 25.7591 28.9819 25.1965C29.5445 24.6339 29.8606 23.8708 29.8606 23.0752V9.0752C29.8606 8.27955 29.5445 7.51648 28.9819 6.95388C28.4193 6.39127 27.6562 6.0752 26.8606 6.0752ZM5.8606 12.0752H27.8606V14.0752H20.8606C20.5954 14.0752 20.341 14.1806 20.1535 14.3681C19.966 14.5556 19.8606 14.81 19.8606 15.0752C19.8606 15.8708 19.5445 16.6339 18.9819 17.1965C18.4193 17.7591 17.6562 18.0752 16.8606 18.0752C16.0649 18.0752 15.3019 17.7591 14.7393 17.1965C14.1767 16.6339 13.8606 15.8708 13.8606 15.0752C13.8606 14.81 13.7552 14.5556 13.5677 14.3681C13.3802 14.1806 13.1258 14.0752 12.8606 14.0752H5.8606V12.0752ZM6.8606 8.0752H26.8606C27.1258 8.0752 27.3802 8.18055 27.5677 8.36809C27.7552 8.55563 27.8606 8.80998 27.8606 9.0752V10.0752H5.8606V9.0752C5.8606 8.80998 5.96595 8.55563 6.15349 8.36809C6.34103 8.18055 6.59538 8.0752 6.8606 8.0752ZM26.8606 24.0752H6.8606C6.59538 24.0752 6.34103 23.9698 6.15349 23.7823C5.96595 23.5948 5.8606 23.3404 5.8606 23.0752V16.0752H11.9606C12.1901 17.2055 12.8033 18.2217 13.6963 18.9516C14.5893 19.6815 15.7072 20.0802 16.8606 20.0802C18.014 20.0802 19.1318 19.6815 20.0249 18.9516C20.9179 18.2217 21.5311 17.2055 21.7606 16.0752H27.8606V23.0752C27.8606 23.3404 27.7552 23.5948 27.5677 23.7823C27.3802 23.9698 27.1258 24.0752 26.8606 24.0752Z" fill="#378FFF"/>
</svg>
