<svg width="28" height="28" viewBox="0 0 28 28" fill="none" xmlns="http://www.w3.org/2000/svg">
<path d="M14.0001 12.6665C13.6465 12.6665 13.3073 12.807 13.0573 13.057C12.8072 13.3071 12.6668 13.6462 12.6668 13.9998V19.3332C12.6668 19.6868 12.8072 20.0259 13.0573 20.276C13.3073 20.526 13.6465 20.6665 14.0001 20.6665C14.3537 20.6665 14.6928 20.526 14.9429 20.276C15.1929 20.0259 15.3334 19.6868 15.3334 19.3332V13.9998C15.3334 13.6462 15.1929 13.3071 14.9429 13.057C14.6928 12.807 14.3537 12.6665 14.0001 12.6665ZM14.5068 7.43984C14.1821 7.30648 13.818 7.30648 13.4934 7.43984C13.3298 7.5033 13.1802 7.59845 13.0534 7.71984C12.9356 7.84944 12.8409 7.99826 12.7734 8.15984C12.6988 8.31808 12.6622 8.4916 12.6668 8.6665C12.6657 8.84198 12.6994 9.01593 12.7657 9.17838C12.8321 9.34083 12.9298 9.48858 13.0534 9.61317C13.183 9.73095 13.3318 9.82565 13.4934 9.89317C13.6954 9.97616 13.9147 10.0083 14.132 9.98665C14.3493 9.96505 14.558 9.8904 14.7397 9.76926C14.9214 9.64813 15.0706 9.48422 15.1741 9.29193C15.2776 9.09965 15.3323 8.88488 15.3334 8.6665C15.3285 8.31348 15.1904 7.97535 14.9468 7.71984C14.82 7.59845 14.6704 7.5033 14.5068 7.43984ZM14.0001 0.666504C11.363 0.666504 8.78514 1.44849 6.59248 2.91358C4.39983 4.37866 2.69086 6.46104 1.68169 8.89739C0.672525 11.3337 0.408481 14.0146 0.92295 16.601C1.43742 19.1875 2.7073 21.5632 4.572 23.4279C6.4367 25.2926 8.81247 26.5625 11.3989 27.077C13.9853 27.5914 16.6662 27.3274 19.1025 26.3182C21.5389 25.3091 23.6213 23.6001 25.0863 21.4074C26.5514 19.2148 27.3334 16.6369 27.3334 13.9998C27.3334 12.2489 26.9885 10.5151 26.3185 8.89739C25.6484 7.27972 24.6663 5.80986 23.4282 4.57175C22.1901 3.33363 20.7202 2.35151 19.1025 1.68144C17.4849 1.01138 15.751 0.666504 14.0001 0.666504ZM14.0001 24.6665C11.8904 24.6665 9.82813 24.0409 8.074 22.8688C6.31988 21.6968 4.95271 20.0309 4.14537 18.0818C3.33804 16.1327 3.1268 13.988 3.53838 11.9189C3.94995 9.84974 4.96586 7.94913 6.45761 6.45737C7.94938 4.96561 9.84999 3.9497 11.9191 3.53813C13.9883 3.12655 16.133 3.33779 18.082 4.14512C20.0311 4.95246 21.697 6.31963 22.8691 8.07375C24.0412 9.82788 24.6668 11.8902 24.6668 13.9998C24.6668 16.8288 23.5429 19.5419 21.5426 21.5423C19.5422 23.5427 16.8291 24.6665 14.0001 24.6665Z" fill="#F2C94C"/>
</svg>
