<svg width="20" height="18" viewBox="0 0 20 18" fill="none" xmlns="http://www.w3.org/2000/svg">
<path d="M19.35 14.164L11.8348 1.11271C11.647 0.792961 11.3789 0.527838 11.057 0.343624C10.7352 0.15941 10.3708 0.0625 10 0.0625C9.62918 0.0625 9.26479 0.15941 8.94296 0.343624C8.62113 0.527838 8.35303 0.792961 8.16524 1.11271L0.650001 14.164C0.469305 14.4733 0.374079 14.8251 0.374079 15.1833C0.374079 15.5415 0.469305 15.8932 0.650001 16.2025C0.835394 16.5242 1.10304 16.7907 1.42547 16.9748C1.7479 17.1589 2.1135 17.2539 2.48477 17.2501H17.5152C17.8862 17.2536 18.2515 17.1585 18.5736 16.9744C18.8957 16.7903 19.163 16.5239 19.3483 16.2025C19.5292 15.8934 19.6248 15.5417 19.6251 15.1835C19.6254 14.8253 19.5304 14.4735 19.35 14.164ZM9.3125 6.93756C9.3125 6.75522 9.38493 6.58035 9.51386 6.45142C9.6428 6.32249 9.81766 6.25006 10 6.25006C10.1823 6.25006 10.3572 6.32249 10.4861 6.45142C10.6151 6.58035 10.6875 6.75522 10.6875 6.93756V10.3751C10.6875 10.5574 10.6151 10.7323 10.4861 10.8612C10.3572 10.9901 10.1823 11.0626 10 11.0626C9.81766 11.0626 9.6428 10.9901 9.51386 10.8612C9.38493 10.7323 9.3125 10.5574 9.3125 10.3751V6.93756ZM10 14.5001C9.79604 14.5001 9.59666 14.4396 9.42707 14.3263C9.25748 14.2129 9.1253 14.0519 9.04725 13.8634C8.9692 13.675 8.94877 13.4677 8.98857 13.2676C9.02836 13.0676 9.12657 12.8838 9.2708 12.7396C9.41502 12.5954 9.59877 12.4972 9.79881 12.4574C9.99886 12.4176 10.2062 12.438 10.3946 12.5161C10.5831 12.5941 10.7441 12.7263 10.8575 12.8959C10.9708 13.0655 11.0313 13.2648 11.0313 13.4688C11.0313 13.7423 10.9226 14.0046 10.7292 14.198C10.5358 14.3914 10.2735 14.5001 10 14.5001Z" fill="#FFDB58"/>
</svg>
