<svg width="20" height="20" viewBox="0 0 20 20" fill="none" xmlns="http://www.w3.org/2000/svg">
<path opacity="0.2" d="M14.375 16.6615C13.6642 17.0722 12.8794 17.3388 12.0656 17.4461C11.2517 17.5534 10.4247 17.4993 9.63176 17.287C8.83881 17.0746 8.09545 16.7082 7.44415 16.2085C6.79286 15.7088 6.24637 15.0857 5.83591 14.3748L2.71091 8.95919C2.50698 8.60051 2.4532 8.17572 2.5613 7.77753C2.66941 7.37934 2.93063 7.04007 3.28795 6.83376C3.64527 6.62746 4.0697 6.57086 4.4686 6.67632C4.86749 6.78178 5.20849 7.04074 5.41716 7.39669L4.3031 5.46857C4.0959 5.10959 4.03979 4.68301 4.14711 4.28266C4.25443 3.88232 4.51639 3.541 4.87536 3.3338C5.23434 3.1266 5.66092 3.07049 6.06127 3.17781C6.46161 3.28513 6.80293 3.54709 7.01013 3.90607L7.55075 4.84357C7.34682 4.48488 7.29304 4.06009 7.40115 3.6619C7.50925 3.26371 7.77047 2.92445 8.12779 2.71814C8.48512 2.51183 8.90954 2.45523 9.30844 2.5607C9.70734 2.66616 10.0483 2.92512 10.257 3.28107L12.6008 7.34357C12.3936 6.98397 12.3377 6.55679 12.4454 6.15601C12.5532 5.75522 12.8158 5.41366 13.1754 5.20646C13.535 4.99926 13.9621 4.94339 14.3629 5.05115C14.7637 5.15891 15.1053 5.42147 15.3125 5.78107L16.6648 8.12482C17.4931 9.56052 17.7172 11.2665 17.2878 12.8674C16.8584 14.4683 15.8106 15.8331 14.375 16.6615Z" fill="#378FFF"/>
<path d="M17.2008 7.8123L15.8485 5.46855C15.5584 4.96628 15.0807 4.59977 14.5205 4.4496C13.9603 4.29944 13.3633 4.37791 12.861 4.66777C12.5808 4.82964 12.3405 5.05229 12.1578 5.31933L10.7969 2.96855C10.6048 2.63633 10.3287 2.36048 9.99631 2.16871C9.66391 1.97693 9.28691 1.87598 8.90315 1.87598C8.5194 1.87598 8.14239 1.97693 7.80999 2.16871C7.47759 2.36048 7.20149 2.63633 7.0094 2.96855C6.60993 2.654 6.11336 2.48843 5.60505 2.50031C5.09674 2.51218 4.60844 2.70075 4.22409 3.0336C3.83973 3.36646 3.58333 3.8228 3.49896 4.3242C3.41458 4.8256 3.5075 5.34073 3.76175 5.78105L3.88596 5.99667C3.56272 6.02174 3.24925 6.1192 2.96878 6.28183C2.46643 6.57202 2.09993 7.04988 1.94991 7.61029C1.79988 8.1707 1.87861 8.76775 2.16878 9.27011L5.29378 14.6857C5.74337 15.469 6.34377 16.1554 7.06025 16.7051C7.77673 17.2549 8.59508 17.6573 9.468 17.8889C10.0521 18.0449 10.6541 18.1237 11.2586 18.1232C12.4644 18.1212 13.6485 17.802 14.692 17.1978C15.7355 16.5935 16.6017 15.7254 17.2037 14.6807C17.8058 13.6359 18.1224 12.4511 18.1219 11.2453C18.1214 10.0395 17.8037 8.85501 17.2008 7.81074V7.8123ZM16.6805 12.706C16.3924 13.7804 15.7922 14.7452 14.9558 15.4785C14.1194 16.2118 13.0844 16.6807 11.9816 16.8259C10.8787 16.971 9.75764 16.7859 8.75999 16.294C7.76234 15.8021 6.93292 15.0255 6.37659 14.0623L3.25159 8.64667C3.13263 8.43172 3.1028 8.17865 3.16853 7.94193C3.23426 7.7052 3.39028 7.50374 3.60303 7.38088C3.81578 7.25802 4.06826 7.22358 4.30615 7.28498C4.54403 7.34637 4.74831 7.4987 4.87503 7.70917L6.37737 10.3123C6.4172 10.3856 6.47131 10.4503 6.53652 10.5024C6.60173 10.5545 6.67671 10.593 6.75704 10.6156C6.83737 10.6383 6.92142 10.6446 7.00424 10.6342C7.08705 10.6238 7.16695 10.597 7.23923 10.5553C7.3115 10.5135 7.37468 10.4577 7.42503 10.3912C7.47539 10.3246 7.51191 10.2486 7.53243 10.1677C7.55295 10.0868 7.55706 10.0026 7.54452 9.92012C7.53198 9.83761 7.50304 9.75845 7.4594 9.6873L4.84378 5.15605C4.77953 5.04934 4.7372 4.9309 4.71924 4.80765C4.70128 4.6844 4.70807 4.55881 4.73919 4.4382C4.77032 4.3176 4.82517 4.20441 4.90053 4.10525C4.97589 4.00608 5.07026 3.92292 5.17812 3.86064C5.28598 3.79835 5.40517 3.75818 5.52873 3.74248C5.65229 3.72677 5.77774 3.73584 5.89775 3.76916C6.01776 3.80248 6.12993 3.85939 6.22771 3.93654C6.32549 4.0137 6.40691 4.10957 6.46721 4.21855L8.90628 8.4373C8.9461 8.51064 9.00022 8.57527 9.06543 8.62736C9.13064 8.67946 9.20562 8.71796 9.28595 8.7406C9.36628 8.76325 9.45033 8.76958 9.53315 8.75921C9.61596 8.74885 9.69586 8.722 9.76813 8.68025C9.8404 8.63851 9.90358 8.58271 9.95394 8.51615C10.0043 8.4496 10.0408 8.37363 10.0613 8.29273C10.0819 8.21183 10.086 8.12764 10.0734 8.04512C10.0609 7.96261 10.0319 7.88345 9.98831 7.8123L8.09143 4.53105C8.02719 4.42434 7.98485 4.3059 7.9669 4.18265C7.94894 4.0594 7.95572 3.93381 7.98685 3.8132C8.01797 3.6926 8.07282 3.57941 8.14818 3.48025C8.22355 3.38108 8.31791 3.29792 8.42577 3.23564C8.53363 3.17335 8.65282 3.13318 8.77638 3.11748C8.89994 3.10177 9.02539 3.11084 9.14541 3.14416C9.26542 3.17748 9.37759 3.23439 9.47537 3.31154C9.57314 3.3887 9.65456 3.48457 9.71487 3.59355L12.3258 8.11699C11.7177 8.73454 11.3422 9.54369 11.2633 10.4068C11.1844 11.27 11.4069 12.1338 11.893 12.8514C11.9862 12.9885 12.1301 13.083 12.2931 13.1141C12.456 13.1452 12.6246 13.1102 12.7617 13.017C12.8989 12.9237 12.9934 12.7798 13.0245 12.6169C13.0555 12.454 13.0206 12.2854 12.9274 12.1482C12.5684 11.6167 12.4275 10.9674 12.5338 10.3349C12.6401 9.70235 12.9855 9.13485 13.4985 8.7498C13.6207 8.65813 13.7052 8.52484 13.7359 8.37513C13.7665 8.22541 13.7413 8.06966 13.6649 7.9373L13.143 7.03105C13.0766 6.92433 13.0324 6.80535 13.0129 6.68119C12.9934 6.55703 12.9991 6.43023 13.0297 6.30831C13.0602 6.1864 13.1149 6.07186 13.1905 5.97152C13.2662 5.87117 13.3613 5.78706 13.4701 5.72419C13.5789 5.66132 13.6993 5.62097 13.824 5.60554C13.9487 5.59011 14.0753 5.59991 14.1961 5.63437C14.317 5.66883 14.4297 5.72723 14.5275 5.80611C14.6254 5.885 14.7063 5.98275 14.7657 6.09355L16.118 8.4373C16.489 9.07613 16.7298 9.78216 16.8264 10.5146C16.9229 11.247 16.8733 11.9913 16.6805 12.7045V12.706ZM14.3946 2.47714C14.4366 2.31709 14.5404 2.18025 14.6832 2.09663C14.826 2.013 14.9961 1.98942 15.1563 2.03105C15.7532 2.18836 16.3129 2.46276 16.8028 2.8383C17.2928 3.21383 17.7032 3.683 18.0102 4.21855L18.036 4.26308C18.0796 4.33423 18.1085 4.41339 18.1211 4.49591C18.1336 4.57842 18.1295 4.66261 18.109 4.74351C18.0885 4.82441 18.052 4.90038 18.0016 4.96693C17.9512 5.03349 17.8881 5.08929 17.8158 5.13103C17.7435 5.17278 17.6636 5.19963 17.5808 5.20999C17.498 5.22036 17.4139 5.21403 17.3336 5.19139C17.2533 5.16874 17.1783 5.13024 17.1131 5.07814C17.0479 5.02605 16.9938 4.96143 16.9539 4.88808L16.9282 4.84355C16.7028 4.45107 16.4017 4.10734 16.0422 3.83238C15.6827 3.55743 15.2722 3.35673 14.8344 3.24199C14.6748 3.19863 14.5389 3.09379 14.4565 2.95043C14.374 2.80707 14.3518 2.63688 14.3946 2.47714ZM6.31956 18.5154C6.21695 18.6455 6.0669 18.7295 5.90239 18.749C5.73788 18.7684 5.57237 18.7218 5.44222 18.6193C4.50741 17.881 3.72247 16.9706 3.12971 15.9373C3.08868 15.8662 3.06204 15.7877 3.05134 15.7063C3.04063 15.6249 3.04606 15.5422 3.06732 15.4629C3.08857 15.3836 3.12524 15.3093 3.17522 15.2442C3.2252 15.1791 3.28752 15.1244 3.35862 15.0834C3.42972 15.0424 3.5082 15.0157 3.5896 15.005C3.67099 14.9943 3.75369 14.9997 3.83298 15.021C3.91227 15.0423 3.9866 15.0789 4.05173 15.1289C4.11685 15.1789 4.17149 15.2412 4.21253 15.3123C4.72629 16.2068 5.40618 16.9948 6.21565 17.6342C6.28061 17.685 6.33486 17.7482 6.37528 17.8201C6.41569 17.892 6.44148 17.9712 6.45113 18.0532C6.46079 18.1351 6.45414 18.2181 6.43156 18.2974C6.40898 18.3768 6.37091 18.4509 6.31956 18.5154Z" fill="#378FFF"/>
</svg>
